<svg data-name="Layer 1" id="Layer_1" viewBox="0 0 1211.33 424.53" xmlns="http://www.w3.org/2000/svg">
    <defs>
        <style>.cls-1 {
            fill: url(#linear-gradient);
        }

        .cls-2 {
            fill: none;
            stroke: #bcc7d6;
            stroke-width: 2px;
        }

        .cls-3 {
            fill: #464754;
        }

        .cls-4 {
            isolation: isolate;
        }

        .cls-5 {
            fill: #bcc7d6;
        }</style>
        <linearGradient gradientTransform="matrix(1210.48, 0, 0, -400.79, -362842.68, 243920.63)" gradientUnits="userSpaceOnUse" id="linear-gradient" x1="300.25" x2="300.25" y1="608.54" y2="607.54">
            <stop offset="0" stop-color="#fff" stop-opacity="0.09"/>
            <stop offset="1" stop-color="#fff" stop-opacity="0"/>
        </linearGradient>
    </defs>
    <title>screen</title>
    <g data-name="prefix  screen" id="prefix_screen">
        <path class="cls-1" d="M1206.69,424.53H.11V54H.2c3-.34,19.23-2.15,46.57-4.72,27.59-2.58,72.45-6.5,129.46-10.4,64.12-4.39,130.23-7.89,196.49-10.4,82.85-3.14,166.2-4.73,247.74-4.73,207.57,0,404.8,10.18,586.23,30.26l3.89.44V422.58l-3.89,1.95Z" data-name="prefix  Subtraction 14" id="prefix_Subtraction_14" transform="translate(0)"/>
        <g data-name="prefix  Group 8795" id="prefix_Group_8795">
            <path class="cls-2" d="M.11,54S644-15,1211.21,54" data-name="prefix  Path 5023" id="prefix_Path_5023" transform="translate(0)"/>
            <g data-name="prefix  Rectangle 2240" id="prefix_Rectangle_2240">
                <rect class="cls-3" height="40" rx="18" width="129" x="539.34"/>
                <rect class="cls-2" height="38" rx="17" width="127" x="540.34" y="1"/>
            </g>
            <g class="cls-4" data-name="prefix  پرده نمایش" id="prefix_پرده_نمایش">
                <text class="cls-4"/>
            </g>
        </g>
    </g>
    <path class="cls-5" d="M583.71,20.05a2.45,2.45,0,0,0,.85,1.31,2.23,2.23,0,0,0,1.44.51v1.51a3.25,3.25,0,0,1-2.59-1.22,2.77,2.77,0,0,1-2.49,1.22,2.62,2.62,0,0,1-2.26-1,2.73,2.73,0,0,1-2.24,1,2.77,2.77,0,0,1-1.81-.63,2,2,0,0,1,0,.23,4.68,4.68,0,0,1,0,1.64,3.17,3.17,0,0,1-.51,1.19,3,3,0,0,1-1,.83,7,7,0,0,1-1.26.57c-.41.13-.92.27-1.52.42a5.61,5.61,0,0,1-3.11-.05,3.63,3.63,0,0,1-2-1.61,6.26,6.26,0,0,1-.77-2.87,9.92,9.92,0,0,1,.66-3.82l1.3.52q-1.18,3.38-.15,5.18c.69,1.2,2,1.59,3.8,1.15a10.73,10.73,0,0,0,2.42-.75,2,2,0,0,0,.84-2.18l-.72-4.93,1.35-.24.31,2a2.32,2.32,0,0,0,.71,1.39,2.25,2.25,0,0,0,1.43.41c1.09,0,1.64-.48,1.64-1.44V18.18h1.28v2.23c0,.95.51,1.42,1.54,1.42a1.81,1.81,0,0,0,1.42-.45,1.06,1.06,0,0,0,.2-1.06l-.59-2.21,1.24-.36.6,2.21v.09Zm-5.52-4.82-1.12,1.09L576,15.23l1.1-1.12Zm.45-1.23a1.23,1.23,0,0,1-.15-.16l-.32-.32-.34-.36-.15-.13,1-.95,1,.95-.23.23-.49.51Zm1.56,2.32-1.11-1.09,1.11-1.12,1.1,1.12Z" transform="translate(0)"/>
    <path class="cls-5" d="M586.13,27.09,585,26l1.12-1.11L587.24,26Zm-.31-3.71V21.87h2.63c1.63,0,2.24-.77,1.82-2.31l-.71-2.68,1.32-.38.74,2.76a3.08,3.08,0,0,1-.47,3,3.46,3.46,0,0,1-2.7,1.1Zm3.44,3.71L588.14,26l1.12-1.11L590.37,26Z" transform="translate(0)"/>
    <path class="cls-5" d="M597.47,23.38a3.09,3.09,0,0,1-2.4-.78,4.68,4.68,0,0,1-.77-2.78L594,11.54l1.37-.08.33,8.36A2.91,2.91,0,0,0,596,21.5c.21.25.69.37,1.44.37h.18v1.51Z" transform="translate(0)"/>
    <path class="cls-5" d="M605.76,20.07a1.82,1.82,0,0,0,.47,1.32,1.75,1.75,0,0,0,1.32.48v1.51a2.73,2.73,0,0,1-2.33-1.1l-.05.11a1.94,1.94,0,0,1-1.1,1,1.88,1.88,0,0,1-1.53-.11l-2.3-1.18a3.12,3.12,0,0,1-2.58,1.31h-.19V21.87h.19a1.82,1.82,0,0,0,1.77-1l1.33-2.54A2.61,2.61,0,0,1,602.28,17a2.39,2.39,0,0,1,2,.2,2.63,2.63,0,0,1,1.14,1.17A3.79,3.79,0,0,1,605.76,20.07Zm-1.67,1.69a3.64,3.64,0,0,0,.45-2,1.51,1.51,0,0,0-.79-1.32,1.27,1.27,0,0,0-1.12-.08,1.71,1.71,0,0,0-.88.88l-.81,1.54L603.28,22A.55.55,0,0,0,604.09,21.76Z" transform="translate(0)"/>
    <path class="cls-5" d="M607.37,23.38V21.87h1.42q2.44,0,1.83-2.31l-.72-2.68,1.34-.38.72,2.69a3.23,3.23,0,0,1-.45,3.08,3.43,3.43,0,0,1-2.72,1.11Zm2.46-8.12L608.59,14l1.24-1.26L611.09,14Z" transform="translate(0)"/>
    <path class="cls-5" d="M623.06,17a6.38,6.38,0,0,1,1.26,1.62,3.77,3.77,0,0,1,.38,1.68,3.05,3.05,0,0,1-.91,2.22,3,3,0,0,1-4.36,0,3.08,3.08,0,0,1-.9-2.22,4,4,0,0,1,1.38-2.9l.74-.72L620,16l1-1.1Zm-2.69,4.48a1.84,1.84,0,0,0,2.49,0,1.59,1.59,0,0,0,.51-1.19,2,2,0,0,0-.25-1,5.28,5.28,0,0,0-1-1.19l-.5-.49-.72.71a2.92,2.92,0,0,0-1.06,2A1.6,1.6,0,0,0,620.37,21.43Z" transform="translate(0)"/>
    <path class="cls-5" d="M629.83,23.38a3.78,3.78,0,0,1-2.12-.53,1.86,1.86,0,0,1-.87-1.4l-.09-1.18H628a5.48,5.48,0,0,0,.07.9c.1.46.61.7,1.53.7h1.23a2.23,2.23,0,0,0,1.62-.44,1.19,1.19,0,0,0,.18-1.18,12.55,12.55,0,0,0-1-2.11c-.47-.84-.9-1.53-1.28-2.09l-.58-.82,1.1-.9q.29.38.72,1c.29.42.71,1.12,1.27,2.12A10.45,10.45,0,0,1,634,19.91a2.68,2.68,0,0,1-.46,2.47,3.5,3.5,0,0,1-2.85,1Z" transform="translate(0)"/>
    <path class="cls-5" d="M640,21.87h.12v1.51H640a3.49,3.49,0,0,1-.91-.11,3.1,3.1,0,0,1-.89,3.08,11,11,0,0,1-3.8,1.66L634,26.53a17.87,17.87,0,0,0,2.59-.83,1.94,1.94,0,0,0,1.15-1.89c0-.12,0-.24,0-.38L637,18.27l1.35-.22.09.65v.05c0,.08.06.38.13.9a5.48,5.48,0,0,0,.48,1.81A1,1,0,0,0,640,21.87Z" transform="translate(0)"/>
    <path class="cls-5" d="M646.08,19.26a3.06,3.06,0,0,1-.46,3,3.46,3.46,0,0,1-2.7,1.1h-3V21.87h3c1.63,0,2.23-.77,1.81-2.31l-.7-2.68,1.32-.38Zm-4.93,5.54,1.12,1.12L641.15,27,640,25.92Zm.6,3.3,1-1,.95,1-.95,1Zm1.4-2.18,1.12-1.12,1.11,1.12L644.27,27Z" transform="translate(0)"/>
</svg>